<?xml version="1.0" encoding="utf-8"?>
<!-- Generator: Adobe Illustrator 19.0.0, SVG Export Plug-In . SVG Version: 6.00 Build 0)  -->
<!DOCTYPE svg PUBLIC "-//W3C//DTD SVG 1.1//EN" "http://www.w3.org/Graphics/SVG/1.1/DTD/svg11.dtd">
<svg version="1.1" id="Layer_1" xmlns="http://www.w3.org/2000/svg" xmlns:xlink="http://www.w3.org/1999/xlink" x="0px" y="0px"
	 viewBox="0 0 330.1 196.8" enable-background="new 0 0 330.1 196.8" xml:space="preserve">
<g id="XMLID_1_">
	<path id="XMLID_16_" fill="#FFFFFF" d="M24.8,193c-2.1,4.8-5.1,4.5-9.3,2.1c-5.4-3.3-10.8-8.7-13.2-12.9c-1.8-3.3-3.3-7.5-1.5-12.6
		c13.8-40.5,54.6-121.2,78-162.9c4.2-7.2,9.3-6.3,14.7-4.5c6.9,2.4,16.5,7.8,24.9,14.1c6.3,4.8,5.4,8.7,3.6,17.7
		c-4.8,23.4-10.8,64.5-13.8,96c19.2-39.3,50.7-94.8,71.7-123.3c2.7-3.9,6-5.4,10.2,0c6.9,10.5,7.8,20.4,0.9,33.9
		c-16.8,32.7-49.8,93.9-72.6,145.8c-3,6.6-6.9,7.2-13.5,4.5c-7.2-3-14.1-7.2-19.5-11.1c-5.7-4.2-9.3-10.2-9.3-19.8
		c-0.3-21.9,2.7-58.8,7.5-86.4C62.6,111.1,36.8,164.8,24.8,193z"/>
	<path id="XMLID_18_" fill="#FFFFFF" d="M179.6,118.9c10.2-35.7,45-86.7,77.4-109.5c13.5-9.6,27.6-13.5,43.2-3.6
		c8.1,5.1,15,10.5,21.6,18.3c8.4,10.2,10.2,27,6.6,46.8c-5.4,30-30.6,92.1-74.1,119.1c-11.1,6.9-24.9,9-40.5,3.3
		c-8.7-3.3-17.7-9.6-24.9-16.8C180.8,168.4,169.7,154,179.6,118.9z M211.4,171.1c8.1,7.2,31.8-7.8,59.4-55.5
		c27.9-48.3,33.3-80.1,27.3-86.4c-7.5-7.8-39,21-63.3,61.5C211.1,130.3,204.5,165.1,211.4,171.1z"/>
</g>
</svg>
