<?xml version="1.0" encoding="utf-8"?>
<!-- Generator: Adobe Illustrator 19.0.0, SVG Export Plug-In . SVG Version: 6.00 Build 0)  -->
<!DOCTYPE svg PUBLIC "-//W3C//DTD SVG 1.1//EN" "http://www.w3.org/Graphics/SVG/1.1/DTD/svg11.dtd">
<svg version="1.1" id="Layer_1" xmlns="http://www.w3.org/2000/svg" xmlns:xlink="http://www.w3.org/1999/xlink" x="0px" y="0px"
	 viewBox="0 0 422.6 198.8" enable-background="new 0 0 422.6 198.8" xml:space="preserve">
<g id="XMLID_1_">
	<path id="XMLID_2_" fill="#FFFFFF" d="M25,194c-2.1,5.1-4.8,5.1-8.7,2.1c-3.3-2.7-7.8-6-12.6-11.4c-4.2-4.8-4.8-9.6-2.1-16.5
		c6.6-17.4,16.2-38.7,27.3-60.3c-3.6-36.3-4.2-70.2-3.3-95.7c-0.3-5.1,1.8-9.6,7.5-7.8C40,6.5,47.8,10.1,52.9,14
		c4.5,3.6,6.3,9,6.9,16.2c0.9,13.2,1.5,28.5,2.7,44.4C88.9,48.8,127.3,17,147.1,2.9c4.2-3.6,7.8-4.5,9.3,1.2
		c3,11.1,1.2,20.7-10.8,31.5c-17.7,16.2-56.4,52.8-85.5,87.6C46.3,148.1,33.7,173,25,194z"/>
	<path id="XMLID_4_" fill="#FFFFFF" d="M213.1,89.6c6.3,0,10.5,1.2,13.5,5.1c2.7,3.3,6.3,8.7,7.8,12c2.1,4.5,0.6,6.9-3.6,7.5
		c-15.6,2.4-38.4,5.7-60,11.4c-6.3,12.3-12.3,24-17.7,35.1c17.1-3.3,32.4-4.5,45-4.5c6.6,0,11.7,1.2,15.3,5.1
		c3.6,3.9,7.5,9,9.3,13.2c2.4,5.7,0,7.8-5.1,8.4c-21,3-52.8,7.8-73.2,14.1c-10.5,3.3-12.6,1.8-17.1-1.8c-3.6-2.7-8.4-6.6-10.8-9.6
		c-3.9-4.5-6-7.5-2.7-15.9c14.4-37.5,42.3-96,66-135.3c-1.5-4.2-3-9.3-3.9-12.3c-1.5-5.7,0.6-8.4,6-9.9c26.4-6.6,63.6-9.6,87.6-9.6
		c8.1,0,13.2,1.8,17.7,6.3c3.6,3.6,6.9,9.9,9.3,15.3c1.5,5.4-0.9,6.9-6.6,7.5c-16.8,1.5-50.4,6-72.3,10.8
		c-8.7,14.1-18.3,30.9-28.2,48.6C199,90.2,207.4,89.6,213.1,89.6z"/>
	<path id="XMLID_6_" fill="#FFFFFF" d="M258.4,145.7c22.5,16.5,44.1,24.6,61.5,24.6c11.7,0,16.5-5.7,10.8-14.1
		c-4.8-6.9-30.3-26.4-41.4-39.3c-13.5-15.6-11.1-31.2-2.4-45.3c22.2-35.7,51.6-54,72-63.9c12.9-6.3,24.6-8.7,36.9-1.2
		c7.8,4.8,18,12.9,22.8,19.8c5.4,7.5,4.8,15,1.2,23.7c-8.7,21-24,42-37.5,56.4c-3.9,4.2-7.2,5.1-11.1,1.2c-3.6-3.6-7.2-9.6-8.7-13.2
		c-2.1-5.4,0-10.5,2.7-15.9c6.6-12.6,27.3-43.5,21.9-46.8c-6.3-3.6-45,24.3-60,47.4c-10.5,16.2-5.1,22.8,1.5,30
		c6.6,7.2,21.9,18.3,29.4,26.7c9,9.9,14.4,22.5,2.1,37.5c-15.9,19.5-34.2,23.4-46.2,23.4c-15.3,0-36.6-5.7-53.7-21.6
		c-7.8-7.2-10.8-15-10.2-25.2C250.3,143.9,254.2,142.7,258.4,145.7z"/>
</g>
</svg>
